<?xml version="1.0" encoding="UTF-8" standalone="no"?>
<!-- Created with Inkscape (http://www.inkscape.org/) -->

<svg
   width="210mm"
   height="297mm"
   viewBox="0 0 210 297"
   version="1.1"
   id="svg5"
   inkscape:version="1.1.2 (0a00cf5339, 2022-02-04)"
   sodipodi:docname="drawing.svg"
   xmlns:inkscape="http://www.inkscape.org/namespaces/inkscape"
   xmlns:sodipodi="http://sodipodi.sourceforge.net/DTD/sodipodi-0.dtd"
   xmlns="http://www.w3.org/2000/svg"
   xmlns:svg="http://www.w3.org/2000/svg">
  <sodipodi:namedview
     id="namedview7"
     pagecolor="#ffffff"
     bordercolor="#666666"
     borderopacity="1.0"
     inkscape:pageshadow="2"
     inkscape:pageopacity="0.0"
     inkscape:pagecheckerboard="0"
     inkscape:document-units="mm"
     showgrid="false"
     inkscape:zoom="1"
     inkscape:cx="575.5"
     inkscape:cy="330"
     inkscape:window-width="1366"
     inkscape:window-height="731"
     inkscape:window-x="0"
     inkscape:window-y="0"
     inkscape:window-maximized="1"
     inkscape:current-layer="layer1" />
  <defs
     id="defs2" />
  <g
     inkscape:label="Layer 1"
     inkscape:groupmode="layer"
     id="layer1">
    <g
       id="g33198"
       transform="translate(-13.277742,-23.666772)">
      <path
         id="text15150"
         style="font-size:61.815px;line-height:1.25;font-family:sans-serif;word-spacing:0px;stroke-width:0.827876"
         d="m 141.74381,81.274626 c -3.45695,0 -6.09802,0.707001 -7.92252,2.121834 -1.77648,1.379463 -2.66443,3.307667 -2.66443,5.783625 v 24.936465 h 6.12159 V 96.501602 h 10.15493 v -2.918168 h -10.15493 v -4.403349 c 0.096,-3.254116 1.58457,-4.881354 4.46536,-4.881354 2.06456,0 4.51303,0.707517 7.3458,2.12235 v -4.244702 c -2.68873,-0.601306 -5.1372,-0.901753 -7.3458,-0.901753 z m 16.06,4.880837 -6.19342,1.750798 v 18.623159 c 0.24006,5.27025 3.79291,7.90546 10.65878,7.90546 2.2086,0 4.63325,-0.30097 7.27397,-0.90227 v -4.24419 c -2.83277,1.41483 -5.25742,2.12183 -7.27397,2.12183 -2.97681,0.0354 -4.46536,-1.59135 -4.46536,-4.88083 V 96.501602 h 10.94713 v -2.918168 h -10.94713 z m 13.97175,7.427971 12.96356,20.161556 c -0.15205,0.25762 -0.30807,0.50949 -0.46613,0.75913 h 5.25395 c 0.0123,-0.0233 0.0254,-0.0459 0.0377,-0.0692 l 11.52281,-20.851446 h -6.98562 l -6.91379,15.226976 -8.42636,-15.226976 z m 17.75138,20.920686 c -0.31021,0.58644 -0.63922,1.15501 -0.98392,1.70843 h 19.11924 v -1.70843 z m -0.98392,1.70843 h -5.44463 c -0.50754,0.67951 -1.04016,1.32551 -1.5999,1.93579 -1.15232,1.34409 -2.5689,2.38778 -4.24936,3.13056 -1.68046,0.77816 -3.74475,1.16737 -6.19342,1.16737 v 3.60753 c 3.31291,0 6.12173,-0.5305 8.42636,-1.59163 2.30463,-1.02575 4.27314,-2.40508 5.90558,-4.13825 1.17753,-1.25018 2.22766,-2.62195 3.15537,-4.11137 z m -5.44463,0 c 0.40851,-0.54694 0.79991,-1.11665 1.1746,-1.70843 h -53.58174 v 1.70843 z" />
      <path
         style="fill:none;stroke:#000000;stroke-width:7.265;stroke-linecap:round;stroke-linejoin:round;stroke-miterlimit:4;stroke-dasharray:none;stroke-opacity:1"
         d="m 84.205961,90.009408 c 0,0 40.002809,-18.676885 41.645069,-6.85953 1.44341,10.386485 -29.658713,13.025371 -30.442991,26.769992 1.878577,9.03866 14.874451,-0.56643 19.414111,-1.58596 20.83531,-1.16449 -0.004,30.51299 -18.830915,35.22205 -32.673992,8.17267 -19.405477,-19.93234 -19.405477,-19.93234"
         id="path859"
         sodipodi:nodetypes="csccsc" />
    </g>
  </g>
</svg>
